<?xml version="1.0" encoding="utf-8"?>
<!-- Generator: Adobe Illustrator 22.0.1, SVG Export Plug-In . SVG Version: 6.00 Build 0)  -->
<svg version="1.1" xmlns="http://www.w3.org/2000/svg" xmlns:xlink="http://www.w3.org/1999/xlink" x="0px" y="0px"
	 viewBox="0 0 881.7 733" style="enable-background:new 0 0 881.7 733;" xml:space="preserve">
<style type="text/css">
	.st0{display:none;}
	.st1{display:inline;}
	.st2{display:inline;opacity:0.33;fill:#93278F;}
	.st3{fill:#16551E;}
	.st4{fill:#16491E;}
	.st5{fill:#C3EDB0;stroke:#D3E1A0;stroke-width:0.8613;stroke-miterlimit:10;}
	.st6{fill:#39B54A;stroke:#006837;stroke-width:1.0594;stroke-linejoin:bevel;stroke-miterlimit:10;}
	.st7{fill:#39B54A;stroke:#006837;stroke-width:1.7226;stroke-miterlimit:10;}
	.st8{fill:#C3EDB0;stroke:#D3E1A0;stroke-miterlimit:10;}
	.st9{fill:#39B54A;stroke:#006837;stroke-width:1.3654;stroke-linejoin:bevel;stroke-miterlimit:10;}
	.st10{fill:#009245;}
	.st11{fill:#C3EDB0;stroke:#D3E1A0;stroke-width:0.983;stroke-miterlimit:10;}
	.st12{fill:#39B54A;stroke:#006837;stroke-width:1.6687;stroke-linejoin:bevel;stroke-miterlimit:10;}
	.st13{fill:#39B54A;stroke:#006837;stroke-width:1.4121;stroke-linejoin:bevel;stroke-miterlimit:10;}
	.st14{fill:#8CC63F;stroke:#006837;stroke-width:1.4121;stroke-linejoin:bevel;stroke-miterlimit:10;}
	.st15{fill:#009245;stroke:#006837;stroke-width:1.6687;stroke-linejoin:bevel;stroke-miterlimit:10;}
	.st16{fill:#C3EDB0;}
	.st17{fill:#9EB68E;}
	.st18{opacity:0.3;fill:#002913;}
	.st19{fill:#39B54A;stroke:#006837;stroke-width:1.5133;stroke-linejoin:bevel;stroke-miterlimit:10;}
	.st20{fill:#FF00FF;}
	.st21{fill:#C3EDB0;stroke:#002913;stroke-miterlimit:10;}
	.st22{fill:#9EB68E;stroke:#002913;stroke-miterlimit:10;}
	.st23{fill:#009245;stroke:#006837;stroke-width:1.5133;stroke-linejoin:bevel;stroke-miterlimit:10;}
	.st24{fill:#8CC63F;stroke:#006837;stroke-width:1.5133;stroke-linejoin:bevel;stroke-miterlimit:10;}
	.st25{fill:#39B54A;stroke:#006837;stroke-width:1.513;stroke-linejoin:bevel;stroke-miterlimit:10;}
	.st26{fill:#8CC63F;stroke:#006837;stroke-width:1.513;stroke-linejoin:bevel;stroke-miterlimit:10;}
	.st27{fill:#39B54A;}
	.st28{fill:#002913;}
	.st29{fill:#BDCCD4;}
	.st30{fill:#F2F2F2;}
	.st31{fill:#6D6856;}
	.st32{fill:url(#SVGID_1_);}
	.st33{opacity:0.36;fill:url(#SVGID_2_);}
	.st34{fill:url(#SVGID_3_);}
	.st35{opacity:0.36;fill:url(#SVGID_4_);}
	.st36{fill:#24190E;}
	.st37{fill:#9E005D;}
	.st38{fill:#D36179;}
	.st39{opacity:0.6;fill:#8CC63F;}
	.st40{opacity:0.6;fill:#29ABE2;stroke:#0071BC;stroke-width:1.0352;stroke-miterlimit:10;}
	.st41{opacity:0.3;fill:#29ABE2;stroke:#0071BC;stroke-width:1.0352;stroke-miterlimit:10;}
	.st42{opacity:0.45;fill:#29ABE2;stroke:#0071BC;stroke-width:1.0352;stroke-miterlimit:10;}
	.st43{fill:#8C0049;stroke:#93278F;stroke-width:1.0352;stroke-miterlimit:10;}
	.st44{fill:#9E005D;stroke:#93278F;stroke-width:1.0352;stroke-miterlimit:10;}
	.st45{fill:#8C0049;}
	.st46{opacity:0.4;fill:#FFFFFF;}
	.st47{fill:#39B54A;stroke:#006837;stroke-width:1.1506;stroke-linejoin:bevel;stroke-miterlimit:10;}
	.st48{fill:#8CC63F;stroke:#006837;stroke-width:1.6687;stroke-linejoin:bevel;stroke-miterlimit:10;}
</style>
<g id="Guide" class="st0">
	<g id="n27Nfj.tif" class="st1">
		
			<image style="overflow:visible;" width="296" height="240" id="Layer_0_1_" xlink:href="AAA39ABD1A23DFA.png"  transform="matrix(1.5203 0 0 1.5203 655.4437 330)">
		</image>
	</g>
	<g id="_x34_Hdmw5.tif" class="st1">
		
			<image style="overflow:visible;" width="821" height="1000" id="Layer_0_2_" xlink:href="AAA39ABD1A23DFD.png"  transform="matrix(0.4543 0 0 0.4543 670.4437 10)">
		</image>
	</g>
</g>
<g id="body" class="st0">
	<path class="st2" d="M537.4,467c0,43-102,80-150,51c-42.6-25.8-1-58,2-63s35-31,39-32L537.4,467z"/>
</g>
<g id="head" class="st0">
	<path class="st2" d="M446.4,368c-43.4,30.4-20,105,82,101c86.8-3.4,60.2-70.6,58-76c-7-17-41-32-60-34
		C499.5,356.2,466.4,354,446.4,368z"/>
</g>
<g id="Layer_4">
	<path class="st3" d="M835.3,497.7c18,225.3-637,265.1-755.6,151.6c-130.4-124.8,65.9-173.6,133.6-150c5.3-56.5-181.5-25.2-142-89
		C141,297.6,823.5,349.4,835.3,497.7z"/>
	<path class="st4" d="M712.1,605.4C667.4,671,185.9,678.3,213.4,629c29.8-53.2,123,12,298,2C553.8,628.6,722.6,589.9,712.1,605.4z"
		/>
	<path class="st4" d="M325.3,488.4c24.8-36.5,292.4-40.5,277.1-13.1c-16.5,29.6-68.4-6.7-165.6-1.1
		C413.3,475.5,319.5,496.9,325.3,488.4z"/>
	<path class="st4" d="M632.6,533.5C607.4,607,290.4,575,296,552.2c3.9-16.1,83,8.9,201.1,1C525.7,551.3,637,520.5,632.6,533.5z"/>
	<path class="st4" d="M221.4,410.7c46.9-95.8,472.9,2.3,461.4,32.4c-8.1,21.2-111.5-26.3-273.6-36
		C369.9,404.8,213.1,427.6,221.4,410.7z"/>
	<path class="st5" d="M798.8,138.2c2.5-1,5.7-24.4,5.7-24.4c-1.3,0.6-8.1,4.7-11.8,4.9c-5.2,0.3-8.7-6.4-10.6-5.5
		C782,113.2,792.9,140.5,798.8,138.2z"/>
	<path class="st6" d="M794.3,143.9c-8.2-18.2-3.1-23.7-7.6-31.9c-4.5-8.2-14.8-3.4-14,4.8c0.5,5.4,11.6,23.5,10.6,29.6"/>
	<path class="st7" d="M773.7,167c-7.2-6.6,7.5-0.9,14.9-18.9c7.4-18.1-10-13.6-0.8-14.1c9.5-0.5,25.7,13.4,20.3,21.1
		C795.1,173.6,788.3,180.5,773.7,167z"/>
	<path class="st8" d="M177.4,553c0.6,12.2,28.8-5.4,36.4,8.2s-3.4,10.1,10.2,24.5c6.3,6.7,13.5-10.9,30.2,2.5
		c9.4,7.6,3.3,19.1,12.2,23.4c9.2,4.6,77.3-78.8,76.9-86.8c-0.4-9-9.8-15.5-23.7-12.9C285.5,518.6,176.8,540,177.4,553z"/>
	<path class="st9" d="M460.2,439.2C434.5,345.1,344,287.9,322,295.5c-44,15.2-30.8,79.7-28.3,97.7c4.2,30.9,25.3,45.1,26.5,74.6
		c1.1,26.3-11.7,47.9-113.1,65.2c-38.2,6.5-47.3,34.7-15.3,23.2c50.9-18.3,88.4-28.1,90-23.5c1.3,3.6-42.4,14.9-63.7,37.1
		c-18.2,19-0.9,30.8,14.6,15.4c37.1-36.7,77.7-49.7,86.2-43.8c5.6,3.9-29.3,21-56.9,56.5c-9,11.6,3.4,28.2,16.2,10.6
		c19.2-26.3,90.2-77.9,110.9-125c11.7-26.6-25.9-104.1-51.9-140.5c-0.5-0.7,50.6,57,70.9,97.3"/>
	<path class="st10" d="M366.2,452.2c-8.8-15.9-73.6-119.5-29.6-134.7c22-7.6,89,131.3,94.4,150.6c5.4,19.3-22.8-27.6-22.8-27.6
		c-20.3-40.3-71.4-98-70.9-97.3c26,36.3,63.5,120.4,51.9,140.5c-26.1,45.4-67,77.5-93.6,104.2c-10.5,10.5-32.1,40.6-26.9,22.3
		c5.8-20.6,67.1-66,73.5-74.6C354.4,518.9,378.8,475.1,366.2,452.2z"/>
	<path class="st11" d="M750.3,537.2c-4.6,9.5-25.3,4.2-29.6,8.4c-6,5.9-4,11.1-7.5,14.6c-6.3,6.3-20.5-4.6-31.5,2.3
		c-10.1,6.4-3,13.7-12.4,17.2c-9.8,3.6-72.2-82.5-71.5-89.9c0.9-8.3,14.9-23.9,21-11.9C635.6,511,755.6,526.2,750.3,537.2z"/>
	<path class="st12" d="M511.1,408.2c25.2-83.7,102.8-109.6,122.4-102.3c39.1,14.7,25.7,72.2,23.1,88.3
		c-4.5,27.6-23.7,39.8-25.5,66.3c-1.6,23.5,9.8,41.1,99.8,61.1c34.6,7.7,28.1,29.2,9.6,22.5c-45.7-16.5-77.1-32.1-78.6-28
		c-1.2,3.2,30.1,13.6,48.6,34c15.9,17.5,3.8,29.8-9.8,15.6c-32.4-33.7-56.3-44.3-64-39.3c-5.1,3.4,11.6,12.8,35.5,45.2
		c7.8,10.6-0.3,25.8-6.8,15.9c-39.9-59.7-79.9-89.3-84.1-108.2c-5.2-23.8,23.9-101.9,19-108.7c-4.9-6.9-10.4,35.4-47.5,63.3"/>
	<path class="st10" d="M511.1,408.2c25.2-83.7,88.6-92.7,108.2-85.4c39.1,14.7,13.5,52.2,8.3,67.7c-9.6,28.5-33.7,69.7-35.8,87.8
		c-1,8.9,53.1,66.6,62,81.1c6.9,11.2,18.2,38,11.6,28.2c-39.9-59.7-79.9-89.3-84.1-108.2c-5.2-23.8,23.9-101.9,19-108.7
		c-4.9-6.9-10.4,35.4-47.5,63.3"/>
	<path class="st13" d="M753.8,179.5c-3.4,8.4-28.4,46.6-58.4,58.2c-37.4,14.5-85.1-2.2-100.3-7.9c-27.4-10.4-37.5,52.4-16.7,56.1
		c13.3,2.4,83,9.2,139.5-16c32.1-14.3,45.4-60.6,55-79.8C794.6,146.1,772.9,132.1,753.8,179.5z"/>
	<path class="st14" d="M710.2,267.7c32.1-14.3,53.2-58.4,62.7-77.7c21.7-43.9,0-58-19.1-10.6c-3.4,8.4-28.4,46.6-58.4,58.2
		c-37.4,14.5-85.1-2.2-100.3-7.9"/>
	<path class="st13" d="M717.9,269.9c32.1-14.3,45.4-60.6,55-79.8c21.7-43.9,0-58-19.1-10.6"/>
	<path class="st12" d="M592.3,334.4c-24.6,89.8-55.8,166-114,163s-90.9-80.9-96.8-173.8c-7-110.2,23.8-158.7,114.5-163.1
		C576.3,156.6,623.3,221,592.3,334.4z"/>
	<path class="st15" d="M381.5,323.6c-2-31-3.5-57.9,3.6-78.9c3.6-10.7,12.7-9.2,16,17.7"/>
	<path class="st16" d="M560.7,332.6C543.6,395,521.9,448,481.5,445.9c-40.4-2.1-63.1-56.2-67.2-120.8
		c-4.9-76.6,16.5-110.2,79.6-113.3C549.6,209.1,582.3,253.9,560.7,332.6z"/>
	<path class="st17" d="M513.8,433.6c-9.3,8.4-19.9,13-32.4,12.3c-40.4-2.1-63.1-56.2-67.2-120.8"/>
	<path class="st18" d="M587.6,247.3c12.6-24.3-34.5-57.5-89.7-55.7c-60.8,2-118.6,24.6-108.1,39c10.6,14.3,52.1,26.6,117.7,29.5
		C573.5,263,579.5,262.8,587.6,247.3z"/>
	<g>
		<path class="st19" d="M615.5,121.4c-2-40.8-5.8-89.1-32.5-93.1c-17.6-2.6-34.9,14.6-48.8,41l-0.3,0c-8.4-1.8-17.2-3-26.3-3.6
			c-67.6-4-135.6,36.4-134.7,84.1c0.9,48.7,22.5,81.6,124.6,88.2c78.4,5,124.6-31.4,127.4-78.9c0.8-13.1-2.7-25.8-9.4-37.3
			L615.5,121.4z"/>
		<path class="st20" d="M615.5,121.4"/>
		<path class="st21" d="M372.9,149.8c0.9,48.7,22.5,81.6,124.6,88.2c78.4,5,124.6-31.4,127.4-78.9"/>
		<path class="st22" d="M381.7,190.5c11.3,21.7,35.6,37.1,84.2,44.2"/>
		<path class="st16" d="M381.5,189.2c8.6,11.6,50.9,38.6,84.3,45L381.5,189.2z"/>
		<path class="st23" d="M615.5,121.7l0-0.3c-2-40.8-5.8-89.1-32.5-93.1c-17.6-2.6-34.9,14.6-48.8,41l-0.3,0
			c-8.4-1.8-17.2-3-26.3-3.6"/>
		<path class="st24" d="M615.5,121.7l0-0.3c-2-40.8-5.8-89.1-32.5-93.1"/>
		<path class="st25" d="M392,106.5c9.3-58,32.4-82.6,54.3-83.7c22.7-1.1,46.6,36.9,53,61.1"/>
		<path class="st26" d="M437.6,24.5c2.9-1,5.8-1.6,8.7-1.7c20.5-1,42.1,30.1,50.7,53.9"/>
		<path class="st27" d="M524.7,108.1c3.1,2.9,98,43,89.8,13.7c-6.1-21.7-8.9-89.2-30.5-92.6c-29.3-4.6-42.9,44.1-48.9,44.4
			c-7,0.3-21.4-8-27.4-6.7C502.8,68,523.1,106.6,524.7,108.1z"/>
		<g id="r_x5F_eye_4_">
			
				<ellipse transform="matrix(0.9996 -2.956976e-02 2.956976e-02 0.9996 -1.8514 17.0484)" class="st28" cx="575.5" cy="71.1" rx="24.7" ry="30.5"/>
			<g id="humor_3_">
				
					<ellipse transform="matrix(0.9996 -2.956976e-02 2.956976e-02 0.9996 -1.8822 17.0221)" class="st29" cx="574.6" cy="72.1" rx="23.8" ry="29.5"/>
				
					<ellipse id="humor_8_" transform="matrix(0.9996 -2.956976e-02 2.956976e-02 0.9996 -1.9421 17.0056)" class="st30" cx="574" cy="74.2" rx="23.1" ry="27.5"/>
			</g>
			<g id="pupil_x5F_iris_4_">
				
					<ellipse transform="matrix(0.9996 -2.956976e-02 2.956976e-02 0.9996 -2.0187 16.9565)" class="st31" cx="572.3" cy="76.7" rx="17" ry="21.1"/>
				
					<ellipse transform="matrix(0.9996 -2.956976e-02 2.956976e-02 0.9996 -2.0187 16.9565)" cx="572.3" cy="76.7" rx="11.8" ry="14.6"/>
				
					<radialGradient id="SVGID_1_" cx="583.7812" cy="84.0026" r="2.7048" gradientTransform="matrix(0.9988 -4.847432e-02 4.847432e-02 0.9988 -17.5583 21.3221)" gradientUnits="userSpaceOnUse">
					<stop  offset="0" style="stop-color:#FFFFFF"/>
					<stop  offset="0.8625" style="stop-color:#FFFFFF;stop-opacity:0.1375"/>
					<stop  offset="1" style="stop-color:#FFFFFF;stop-opacity:0"/>
				</radialGradient>
				<path class="st32" d="M572.3,76.8c0,1.5-1.1,2.8-2.6,2.8s-2.7-1.2-2.7-2.7c0-1.5,1.1-2.8,2.6-2.8
					C571,74.1,572.2,75.3,572.3,76.8z"/>
			</g>
			
				<radialGradient id="SVGID_2_" cx="590.3355" cy="50.6604" r="6.666" gradientTransform="matrix(0.9919 -0.1274 0.1274 0.9919 -22.1019 85.5651)" gradientUnits="userSpaceOnUse">
				<stop  offset="0" style="stop-color:#FFFFFF"/>
				<stop  offset="1" style="stop-color:#FFFFFF;stop-opacity:0"/>
			</radialGradient>
			<path class="st33" d="M576.6,59.8c0.5,3.6-2.1,6.9-5.8,7.4c-3.7,0.5-7-2.1-7.5-5.7c-0.5-3.6,2.1-6.9,5.8-7.4
				C572.7,53.6,576.1,56.1,576.6,59.8z"/>
		</g>
		<path class="st27" d="M437.6,25.3c31.4,6.5,39.3,26.1,58.6,51.2c5.4,7.1-51.3-4.5-56.3-5.3C434.8,70.5,433.6,24.4,437.6,25.3z"/>
		<g id="r_x5F_eye_1_">
			
				<ellipse transform="matrix(0.9988 -4.847432e-02 4.847432e-02 0.9988 -2.6942 21.7032)" class="st28" cx="446.1" cy="66.4" rx="26.5" ry="30.5"/>
			<g id="humor_1_">
				
					<ellipse transform="matrix(0.9988 -4.847432e-02 4.847432e-02 0.9988 -2.7461 21.6584)" class="st29" cx="445.2" cy="67.4" rx="25.5" ry="29.5"/>
				
					<ellipse id="humor_2_" transform="matrix(0.9988 -4.847432e-02 4.847432e-02 0.9988 -2.8498 21.5687)" class="st30" cx="443.3" cy="69.5" rx="23.5" ry="27.5"/>
			</g>
			<g id="pupil_x5F_iris_1_">
				
					<ellipse transform="matrix(0.9988 -4.847432e-02 4.847432e-02 0.9988 -2.9311 21.4891)" class="st31" cx="441.6" cy="71.2" rx="18.3" ry="21.1"/>
				
					<ellipse transform="matrix(0.9988 -4.847432e-02 4.847432e-02 0.9988 -2.9311 21.4891)" cx="441.6" cy="71.2" rx="12.7" ry="14.6"/>
				
					<radialGradient id="SVGID_3_" cx="466.1002" cy="72.2047" r="2.5713" gradientTransform="matrix(1.0712 -5.198496e-02 4.847432e-02 0.9988 -65.4699 23.6473)" gradientUnits="userSpaceOnUse">
					<stop  offset="0" style="stop-color:#FFFFFF"/>
					<stop  offset="0.8625" style="stop-color:#FFFFFF;stop-opacity:0.1375"/>
					<stop  offset="1" style="stop-color:#FFFFFF;stop-opacity:0"/>
				</radialGradient>
				<path class="st34" d="M439.9,71.4c0.1,1.5-1,2.8-2.4,2.9c-1.4,0.1-2.6-1.1-2.7-2.6c-0.1-1.5,1-2.8,2.4-2.9
					C438.6,68.7,439.8,69.9,439.9,71.4z"/>
			</g>
			
				<radialGradient id="SVGID_4_" cx="450.7159" cy="55.2047" r="6.666" gradientTransform="matrix(0.9988 -4.847432e-02 4.847432e-02 0.9988 -17.5583 21.3221)" gradientUnits="userSpaceOnUse">
				<stop  offset="0" style="stop-color:#FFFFFF"/>
				<stop  offset="1" style="stop-color:#FFFFFF;stop-opacity:0"/>
			</radialGradient>
			<path class="st35" d="M442,54.3c0.2,3.6-2.7,6.7-6.4,6.9s-6.9-2.6-7-6.3c-0.2-3.6,2.7-6.7,6.4-6.9S441.8,50.6,442,54.3z"/>
		</g>
		<path class="st36" d="M574.4,182.8c-3.7,7.2-45.6,30.2-68.6,31.4s-72.2-23.5-75.7-33.4L574.4,182.8z"/>
		<path class="st27" d="M374.1,150c0.8-13.6,18.9-20.9,33.1-18.6c19.2,3.1,27.9,17.7,87.9,16.8c60-0.9,64.5-12.1,93.4-14.5
			c28.9-2.4,36.5,18.8,35.3,25.3c-1.2,6.6-56.5,35.7-126,33.6C427.1,190.5,373.6,157.5,374.1,150z"/>
		<path class="st37" d="M539.8,204.3c-11.9,5.3-24.5,9.4-33.9,9.9c-11.3,0.5-28.9-5.1-44.3-12.3c0,0,7.7-10.3,35.6-2.4
			c6.1,1.7,10-0.5,15.9-1.8C531,193.8,539.8,204.3,539.8,204.3z"/>
		<path class="st38" d="M537.5,205.3c-11.1,4.7-22.9,8.5-31.8,8.9c-10.5,0.5-27-4.5-41.4-10.9c0,0,7.2-9.2,33.3-2.2
			c5.7,1.5,9.3-0.5,14.9-1.6C529.3,195.9,537.5,205.3,537.5,205.3z"/>
	</g>
	<path class="st27" d="M634,248.9c60.3,5.1,90.2-12.9,118.5-47.2c11.4-13.9-15.2,54.7-33.9,64.6C699.4,276.3,620.3,247.7,634,248.9z
		"/>
	<circle class="st10" cx="408.8" cy="111.8" r="5"/>
	<circle class="st10" cx="393.9" cy="135.5" r="5"/>
	<circle class="st10" cx="415.7" cy="130.4" r="9"/>
	<circle class="st10" cx="601.6" cy="144.2" r="5"/>
	<circle class="st10" cx="595.3" cy="116.9" r="5"/>
	<circle class="st10" cx="583.5" cy="135.9" r="9"/>
	<path class="st39" d="M511.5,82.7c15.4,24.4,23.4,56.4,17,94C552,147.8,511.5,82.7,511.5,82.7z"/>
	<g>
		<path class="st40" d="M757,106.2c0.7,3.7,8,2.2,11.5,10.8c0.9,2.3-8.1,56.3-9.6,57.2c-8.6,5.7-20.3,1.1-22,9.2
			c-1.7,8.1,19.8,12.5,19.8,12.5s21.5,4.4,23.1-3.7c1.7-8.1-10.9-8.5-16.6-17.1c-0.8-1.2,12.2-54.6,13.6-56.4
			c5.7-7.3,12.8-2.3,14.8-5.4c3.1-4.7-15.6-3.2-17.4-3.6C772.5,109.4,756,100.7,757,106.2z"/>
		
			<ellipse transform="matrix(0.2001 -0.9798 0.9798 0.2001 586.7728 807.4503)" class="st41" cx="787.9" cy="44.4" rx="5.7" ry="29"/>
		<path class="st42" d="M816.3,50.2c-0.6,3.1-13.9,3-29.5-0.2c-15.7-3.2-27.9-8.3-27.3-11.4l1.3-1.3c-7.3,2-21.6,33.1-21.6,33.1
			c-0.9,4.5,16.9,12,39.9,16.7s42.3,4.8,43.3,0.3c0,0-0.9-34.3-6.8-38.9L816.3,50.2z"/>
		<path class="st43" d="M756.5,74.5c6.8-2.6,27-8,36-4.9c10.5,3.6,17.4,17.8,29.9,17.2c1-0.1-25.4,9.5-40.2,4
			C774.8,88.1,747.3,78,756.5,74.5z"/>
		<path class="st44" d="M768.8,84.6c-1.5-0.3-4-9.5-14.7-15.2c-2.9-1.5-10.6-4.7-9.8-8.9l-5.1,9.8l-0.1,0.5
			c-3.5,17.4,12.2,35.2,35.2,39.9s44.5-5.6,48-22.9l0.1-0.5"/>
		<path class="st45" d="M768.9,84.7c-5-5.4,28-1.8,37.3,0.3c11.5,2.5,15.7,2.3,15.7,2.3s6,5.4-13,8.9
			C801.1,97.7,774.4,90.7,768.9,84.7z"/>
		<path class="st46" d="M742.5,74.6c0,0,4.8,8.1,14,10.7c9.5,2.7,3.5,7.1,3.5,7.1s-4,3.3-10.4-0.5C742.8,87.8,740.4,74.7,742.5,74.6
			z"/>
		<path class="st46" d="M815.1,58.7c0,0-0.8,23.8-6.5,34.5c-3.7,7-10.4,9.7-10.4,9.7s7,4.7,12.4-5.8C816.4,86,817.7,57.9,815.1,58.7
			z"/>
	</g>
	<path class="st6" d="M788.9,162.9c-19.9-1.6-22.2-8.9-31.6-8.9c-9.3,0-10.2,11.2-2.6,14.6c4.9,2.2,26.2,1.3,31,5.2"/>
	<path class="st47" d="M809,150.3c-2.8-22.3,4-27,1.9-37.3s-13.7-7.8-15.4,1.5c-1.1,6.1,4.6,29.1,1.7,35.6"/>
	<path class="st47" d="M802.5,150.6c-18.1-13.2-16.9-21.5-25.8-27c-8.9-5.5-15.1,4.6-9.5,12.2c3.7,5,24.3,16.6,27.1,23.2"/>
	<path class="st5" d="M792.2,162.7c9.9-9.1-20.1-22.3-20.1-22.3c-0.5,1.4,1.1,5.3-0.4,8.6c-1.3,2.9-5.8,5.2-6.5,7.2
		C765.2,156.2,787.6,167,792.2,162.7z"/>
	<path class="st5" d="M802.8,150.1c2.5-1-1.5-30.1-1.5-30.1c-1.3,0.6-1.4,4.9-4.9,6.3c-3,1.1-12.6,0.7-14.6,1.6
		C781.9,127.8,796.9,152.4,802.8,150.1z"/>
	<path class="st16" d="M541.4,350.8c-12.4,35.3-3.3,54.1-27,82.3c-19.8,23.6-95.1-19.4-100.4-108.3L541.4,350.8z"/>
	<g>
		<path class="st8" d="M388.2,431.1c-4.8,3.2-31.7-45.3-27.1-58.3c4.6-13.1,47.1-23.7,49.3-20.8c2.7,3.6,1.4,7.9,2.5,10.9
			c2.3,5.9,6.7,8.4,10.7,14.5c9.7,14.5-3.4,13.2-6,20.3c-2.5,6.8,1.8,12.8-3.2,16.2c-2.5,1.7-12.9,1.6-18.8,4.9
			C390.9,421.4,390.8,429.4,388.2,431.1z"/>
		<g>
			<path class="st12" d="M407.2,263.3c-37.6,6.4-80.3-2.4-112.7,32.2c-14.5,15.5,45.9,58.8,56,61.4c10.1,2.5,15.1,2.3,23.1,1
				c16.9-2.7,15.5-3.7,25.5-11.2c15.4-11.8,25.1,0.8,14.5,9.3c-5.7,4.6-25.3,3.1-26.5,11.3c-0.8,5,17.9,5.1,30.3,4.5
				c20-1,16.4,28.2-2.2,17.1c-11.5-6.9-30.4-6.5-33.3-5.4c-2.1,0.8,10.9,11.4,18.8,16.1c9.3,5.6,23.3,5.9,18.7,14.1
				c-13.5,24.1-40.2-28.1-46.9-16.7c-3.6,6.1,11.9,18.4,19.4,28.1c4.9,6.4,0.7,14-9.5,10.5c-5.1-1.8-16.3-30.1-23.8-37
				c-6.3-5.7-28.6-12.6-34.8-15.3c-4.9-2.2-58.5-29.2-78.5-69.3C217.6,258.1,376.9,212,397,209.3"/>
			<path class="st48" d="M245.4,313.9C217.6,258.1,376.9,212,397,209.3"/>
			<path class="st27" d="M395.5,210.5c-66.9,25.3-148.9,46.3-149.2,103.4L395.5,210.5z"/>
		</g>
	</g>
</g>
</svg>
